<?xml version="1.0" encoding="utf-8"?>
<!-- Generator: Adobe Illustrator 23.0.4, SVG Export Plug-In . SVG Version: 6.00 Build 0)  -->
<svg version="1.1" id="Logo" xmlns="http://www.w3.org/2000/svg" xmlns:xlink="http://www.w3.org/1999/xlink" x="0px" y="0px"
	 viewBox="0 0 464.4 198" style="enable-background:new 0 0 464.4 198;" xml:space="preserve">
<style type="text/css">
	.st0{fill:white;}
</style>
<path id="Bloomberg_Industry_Group_Stack" class="st0" d="M360.66,132.34v-17.58h6.96v14.91c0,4.24,1.28,7.37,5.16,7.37
	c3.94,0,6.32-2.61,6.32-7.25v-15.03h6.96v27.85h-6.61v-4.47h-0.12c-0.47,1.1-2.61,5.16-8.53,5.16
	C364.02,143.31,360.66,138.9,360.66,132.34z M131.32,143.31c5.92,0,8.06-4.06,8.53-5.16h0.12v4.47h6.61v-27.85h-6.96v15.03
	c0,4.64-2.38,7.25-6.32,7.25c-3.89,0-5.16-3.13-5.16-7.37v-14.91h-6.96v17.58C121.17,138.9,124.53,143.31,131.32,143.31z
	 M284.69,118.6h15.72v21c-1.28,0.64-7.25,4.06-16.94,4.06c-13.57,0-21.75-9.34-21.75-21.58c0-12.24,8.35-21.58,21.75-21.58
	c10.85,0,15.26,4.41,16.13,5.16l-5.4,5.45c-0.58-0.58-4.18-4-10.73-4c-8.64,0-14.09,6.61-14.09,14.96c0,8.41,5.68,14.97,14.09,14.97
	c6.26,0,9.4-2.03,9.63-2.15v-9.69h-8.41V118.6z M187.48,120.68v12.13c0,2.55,0.58,4.58,3.89,4.58c1.97,0,3.25-0.46,3.77-0.87v5.86
	c-0.35,0.18-2.2,0.93-5.69,0.93c-8.47,0-8.93-4.93-8.93-10.33v-12.3h-5.28v-5.92h5.28v-8.06h6.96v8.06h7.66v5.92H187.48z M81,125.03
	v17.58h-6.96V127.7c0-4.24-1.28-7.37-5.16-7.37c-3.94,0-6.32,2.61-6.32,7.25v15.03h-6.96v-27.85h6.61v4.47h0.12
	c0.47-1.1,2.61-5.16,8.53-5.16C77.64,114.06,81,118.47,81,125.03z M355.83,128.69c0,8.76-6.73,14.62-15.14,14.62
	c-8.41,0-15.14-5.86-15.14-14.62c0-8.76,6.73-14.62,15.14-14.62C349.1,114.07,355.83,119.93,355.83,128.69z M348.87,128.69
	c0-4.35-3.07-8.35-8.18-8.35c-5.11,0-8.18,4-8.18,8.35c0,4.35,3.07,8.35,8.18,8.35C345.79,137.04,348.87,133.04,348.87,128.69z
	 M42.43,142.61h7.31v-41.07h-7.31V142.61z M231.92,142.84l-1.33,3.31c-0.31,0.73-0.6,1.36-0.87,1.88c-0.27,0.52-0.61,0.95-1.02,1.28
	c-0.41,0.33-0.9,0.57-1.48,0.72c-0.58,0.16-1.3,0.23-2.15,0.23c-0.62,0-1.23-0.07-1.83-0.2c-0.6-0.14-1.17-0.3-1.71-0.49l-0.87,6.26
	c1.74,0.46,3.52,0.7,5.34,0.7c1.55,0,2.87-0.16,3.97-0.49c1.1-0.33,2.06-0.83,2.87-1.51c0.81-0.68,1.52-1.51,2.12-2.49
	c0.6-0.99,1.15-2.14,1.65-3.45l13.17-33.82h-7.25l-6.96,19.32h-0.12l-7.77-19.32h-7.66L231.92,142.84z M406.83,120.33
	c5.11,0,8.18,4,8.18,8.35c0,4.35-3.08,8.35-8.18,8.35c-5.1,0-8.18-4-8.18-8.35C398.65,124.34,401.73,120.33,406.83,120.33
	 M391.92,155.84h6.96v-16.77h0.17c1.45,1.8,4.23,4.23,9.46,4.23c7.95,0,13.46-6.38,13.46-14.62c0-8.24-5.16-14.62-13.75-14.62
	c-3.89,0-7.54,1.51-9.57,4.87h-0.12v-4.18h-6.61V155.84z M306.27,142.61h6.96V127.7c0-1.51,0.93-7.02,7.48-7.02
	c1.1,0,2.2,0.23,3.36,0.52v-6.73c-0.81-0.23-1.62-0.41-2.49-0.41c-3.66,0-6.73,1.91-8.24,5.11h-0.12v-4.41h-6.96V142.61z
	 M199.94,142.61h6.96V127.7c0-1.51,0.93-7.02,7.48-7.02c1.1,0,2.2,0.23,3.36,0.52v-6.73c-0.81-0.23-1.62-0.41-2.49-0.41
	c-3.66,0-6.73,1.91-8.24,5.11h-0.12v-4.41h-6.96V142.61z M172.43,118.31c-2.26-3.08-6.21-4.24-9.92-4.24
	c-5.63,0-11.2,2.79-11.2,8.99c0,10.62,15.03,6.09,15.03,11.84c0,2.2-2.61,3.19-4.64,3.19c-2.96,0-4.81-1.45-6.61-3.42l-4.64,4.35
	c2.84,3.19,6.56,4.3,10.85,4.3c5.68,0,12.01-2.32,12.01-8.93c0-10.85-15.02-6.79-15.02-11.78c0-2.09,2.2-2.96,4.06-2.96
	c2.38,0,4.12,0.99,5.45,2.84L172.43,118.31z M100.62,137.04c-5.1,0-8.18-4-8.18-8.35c0-4.35,3.07-8.35,8.18-8.35
	c5.11,0,8.18,4,8.18,8.35C108.8,133.04,105.73,137.04,100.62,137.04 M108.92,142.61h6.61v-42.03h-6.96v17.72h-0.17
	c-1.45-1.8-4.24-4.24-9.46-4.24c-7.95,0-13.46,6.38-13.46,14.62c0,8.24,5.16,14.62,13.75,14.62c3.89,0,7.54-1.51,9.57-4.87h0.12
	V142.61z M152.85,69.58c0,8.76-6.73,14.62-15.14,14.62c-8.41,0-15.14-5.86-15.14-14.62c0-8.76,6.73-14.62,15.14-14.62
	C146.12,54.97,152.85,60.83,152.85,69.58z M145.89,69.58c0-4.35-3.08-8.35-8.18-8.35c-5.1,0-8.18,4-8.18,8.35
	c0,4.35,3.08,8.35,8.18,8.35C142.81,77.94,145.89,73.94,145.89,69.58z M72.76,71.79c0,8.93-7.77,11.72-15.54,11.72H42.43V42.44
	h16.01c6.21,0,12.59,2.84,12.59,10.32c0,4.64-2.9,7.71-7.13,8.99v0.12C69.05,62.45,72.76,66.51,72.76,71.79z M49.74,59.14h6.67
	c4.87,0,7.31-2.09,7.31-5.16c0-3.54-2.44-5.28-7.95-5.28h-6.03V59.14z M65.45,71.21c0-4.29-2.78-5.8-8.7-5.8h-7.02v11.83h6.73
	C60.23,77.24,65.45,76.6,65.45,71.21z M320.6,81.01c0,10.03-4.87,16.41-15.72,16.41c-5.16,0-9.86-1.1-13.8-4.58l4.18-5.69
	c2.79,2.55,5.68,4,9.57,4c6.73,0,8.81-3.83,8.81-9.34v-2.03h-0.11c-2.03,2.73-5.63,4.06-9.11,4.06c-8.35,0-13.86-6.38-13.86-14.27
	c0-8.23,5.16-14.62,13.75-14.62c3.89,0,7.54,1.51,9.57,4.87h0.12v-4.18h6.61V81.01z M313.99,69.41c0-4.81-3.19-8.18-8.24-8.18
	c-4.87,0-8.24,3.37-8.24,8.29c0,4.41,3.48,8.06,8.18,8.06C310.86,77.59,313.99,74.05,313.99,69.41z M235.94,69.58
	c0,8.24-5.16,14.62-13.75,14.62c-3.89,0-7.54-1.51-9.57-4.87h-0.12v4.18h-6.61V41.47h6.96V59.2h0.17c1.45-1.8,4.23-4.23,9.45-4.23
	C230.43,54.97,235.94,61.35,235.94,69.58z M228.98,69.58c0-4.35-3.07-8.35-8.18-8.35c-5.1,0-8.18,4-8.18,8.35
	c0,4.35,3.07,8.35,8.18,8.35C225.9,77.94,228.98,73.94,228.98,69.58z M200.25,66.91v16.59h-6.96V67.73c0-3.48-1.04-6.5-5.16-6.5
	c-4.35,0-5.98,3.6-5.98,7.19v15.08h-6.96V66.91c0-3.42-1.39-5.68-4.76-5.68c-4.58,0-6.38,3.36-6.38,7.08v15.19h-6.96V55.66h6.61
	v4.35h0.11c1.22-2.61,3.89-5.05,8.53-5.05c4.29,0,7.25,1.68,8.7,5.16c2.03-3.54,4.99-5.16,9.16-5.16
	C197.64,54.97,200.25,60.25,200.25,66.91z M84.49,83.51h-7.03V41.47h7.03V83.51z M286.25,61.58c-6.55,0-7.48,5.51-7.48,7.02v14.91
	h-6.96V55.66h6.96v4.41h0.12c1.51-3.19,4.58-5.11,8.24-5.11c0.87,0,1.68,0.18,2.49,0.41v6.73
	C288.46,61.81,287.35,61.58,286.25,61.58z M239.08,69.58c0-8.76,6.73-14.62,15.14-14.62c7.77,0,13.05,5.46,13.05,15.14v1.91h-21.23
	c0.46,4.12,3.6,6.61,7.48,6.61c3.48,0,5.74-1.62,7.48-3.77l4.99,3.77c-3.25,4-7.37,5.57-11.77,5.57
	C245.81,84.2,239.08,78.34,239.08,69.58z M246.04,66.8h14.27c-0.06-4.06-2.73-6.61-7.08-6.61C249.12,60.19,246.56,62.8,246.04,66.8z
	 M89.15,69.58c0-8.76,6.73-14.62,15.14-14.62c8.41,0,15.14,5.86,15.14,14.62c0,8.76-6.73,14.62-15.14,14.62
	C95.88,84.2,89.15,78.34,89.15,69.58z M96.11,69.58c0,4.35,3.07,8.35,8.18,8.35c5.1,0,8.18-4,8.18-8.35c0-4.35-3.07-8.35-8.18-8.35
	C99.18,61.23,96.11,65.23,96.11,69.58z"/>
</svg>
